<svg xmlns="http://www.w3.org/2000/svg" xmlns:xlink="http://www.w3.org/1999/xlink" width="1500" zoomAndPan="magnify" viewBox="0 0 1125 1124.99995" height="1500" preserveAspectRatio="xMidYMid meet" version="1.0"><path fill="#ffffff" d="M 991.582031 738.878906 L 1067.679688 814.976562 C 1121.058594 868.355469 1109.261719 958.28125 1043.457031 995.242188 C 812.890625 1124.824219 565.347656 1008.964844 344.199219 787.851562 C 123.890625 567.539062 0.1875 313.136719 125.117188 80.960938 C 161.484375 13.40625 252.597656 -0.0703125 306.851562 54.148438 L 401.535156 148.867188 C 446.199219 193.53125 446.199219 265.988281 401.535156 310.652344 L 356.3125 355.875 C 315.601562 396.585938 315.601562 462.566406 356.3125 503.273438 L 637.140625 784.105469 C 677.851562 824.8125 743.832031 824.8125 784.539062 784.105469 L 829.761719 738.878906 C 874.460938 694.214844 946.882812 694.214844 991.582031 738.878906 Z M 991.582031 738.878906 " fill-opacity="1" fill-rule="nonzero"/></svg>